<svg id="visual" viewBox="0 0 900 80" width="900" height="80" xmlns="http://www.w3.org/2000/svg" xmlns:xlink="http://www.w3.org/1999/xlink" version="1.1"><rect x="0" y="0" width="900" height="80" fill="#002233"></rect><path d="M0 62L8.8 62C17.7 62 35.3 62 53 59.8C70.7 57.7 88.3 53.3 106 51.3C123.7 49.3 141.3 49.7 159 50.2C176.7 50.7 194.3 51.3 212 54.2C229.7 57 247.3 62 265 64.3C282.7 66.7 300.3 66.3 318 65.3C335.7 64.3 353.3 62.7 371 59.8C388.7 57 406.3 53 423.8 51.7C441.3 50.3 458.7 51.7 476.2 54.7C493.7 57.7 511.3 62.3 529 63C546.7 63.7 564.3 60.3 582 59.5C599.7 58.7 617.3 60.3 635 61.7C652.7 63 670.3 64 688 64.8C705.7 65.7 723.3 66.3 741 66C758.7 65.7 776.3 64.3 794 63.2C811.7 62 829.3 61 847 61.3C864.7 61.7 882.3 63.3 891.2 64.2L900 65L900 81L891.2 81C882.3 81 864.7 81 847 81C829.3 81 811.7 81 794 81C776.3 81 758.7 81 741 81C723.3 81 705.7 81 688 81C670.3 81 652.7 81 635 81C617.3 81 599.7 81 582 81C564.3 81 546.7 81 529 81C511.3 81 493.7 81 476.2 81C458.7 81 441.3 81 423.8 81C406.3 81 388.7 81 371 81C353.3 81 335.7 81 318 81C300.3 81 282.7 81 265 81C247.3 81 229.7 81 212 81C194.3 81 176.7 81 159 81C141.3 81 123.7 81 106 81C88.3 81 70.7 81 53 81C35.3 81 17.7 81 8.8 81L0 81Z" fill="#4FACF7" stroke-linecap="round" stroke-linejoin="miter"></path></svg>
