<svg id="visual" viewBox="0 0 900 300" width="900" height="300" xmlns="http://www.w3.org/2000/svg" xmlns:xlink="http://www.w3.org/1999/xlink" version="1.1"><rect x="0" y="0" width="900" height="300" fill="#002233"></rect><path d="M0 242L21.5 235.5C43 229 86 216 128.8 212C171.7 208 214.3 213 257.2 217C300 221 343 224 385.8 222C428.7 220 471.3 213 514.2 217.8C557 222.7 600 239.3 642.8 243.2C685.7 247 728.3 238 771.2 227.3C814 216.7 857 204.3 878.5 198.2L900 192L900 301L878.5 301C857 301 814 301 771.2 301C728.3 301 685.7 301 642.8 301C600 301 557 301 514.2 301C471.3 301 428.7 301 385.8 301C343 301 300 301 257.2 301C214.3 301 171.7 301 128.8 301C86 301 43 301 21.5 301L0 301Z" fill="#4FACF7" stroke-linecap="round" stroke-linejoin="miter"></path></svg>